<svg width="24" height="24" viewBox="0 0 24 24" fill="none" xmlns="http://www.w3.org/2000/svg">
  <!-- Black background -->
  <rect width="24" height="24" fill="#000000"/>

  <!-- Drop shape: dark navy = "empty" upper part -->
  <path d="M12 2C12 2 4.5 12 4.5 16.5C4.5 19.8 7.9 22.5 12 22.5C16.1 22.5 19.5 19.8 19.5 16.5C19.5 12 12 2 12 2Z" fill="#0D3B6E"/>

  <!-- Water fill: bright blue lower ~55% -->
  <path d="M4.7 15.5C4.6 15.8 4.5 16.15 4.5 16.5C4.5 19.8 7.9 22.5 12 22.5C16.1 22.5 19.5 19.8 19.5 16.5C19.5 16.15 19.4 15.8 19.3 15.5H4.7Z" fill="#1976D2"/>

  <!-- Wave highlight on water surface -->
  <path d="M6.5 15.5C7.5 14.8 9 15.2 10 15.5C11 15.8 12.5 15.2 13.5 14.9C14.5 14.6 16 15 17.5 15.5" stroke="#42A5F5" stroke-width="0.7" stroke-linecap="round" fill="none"/>

  <!-- Shine on drop -->
  <ellipse cx="9.5" cy="12.5" rx="1.2" ry="2" fill="#BBDEFB" opacity="0.25"/>
</svg>
